<?xml version="1.0" encoding="utf-8"?>
<!-- Generator: Adobe Illustrator 15.0.0, SVG Export Plug-In . SVG Version: 6.00 Build 0)  -->
<!DOCTYPE svg PUBLIC "-//W3C//DTD SVG 1.1//EN" "http://www.w3.org/Graphics/SVG/1.1/DTD/svg11.dtd">
<svg version="1.1" xmlns="http://www.w3.org/2000/svg" xmlns:xlink="http://www.w3.org/1999/xlink" x="0px" y="0px"
	 width="149.167px" height="172.243px" viewBox="0 0 149.167 172.243" enable-background="new 0 0 149.167 172.243"
	 xml:space="preserve">
<g id="Layer_1" display="none">
	<polygon display="inline" fill="#585858" points="149.167,129.183 74.583,172.243 0,129.183 0,43.061 74.583,0 149.167,43.061 	"/>
	<path display="inline" fill="#FFFFFF" d="M41.88,84.75l25.09,26.784L54.889,84.75H41.88z M74.583,115.84L88.64,84.75H60.527
		L74.583,115.84z M55.009,79.594l8.217-15.466H52.673l-11.6,15.466H55.009z M82.196,111.534l25.091-26.784h-13.01L82.196,111.534z
		 M60.849,79.594h27.469l-8.217-15.466H69.065L60.849,79.594z M94.158,79.594h13.936l-11.6-15.466H85.942L94.158,79.594z
		 M99.835,60.02l15.467,20.621c0.376,0.483,0.55,1.04,0.523,1.671c-0.027,0.632-0.258,1.174-0.687,1.632l-38.664,41.243
		c-0.483,0.536-1.113,0.804-1.893,0.804c-0.778,0-1.408-0.268-1.892-0.804L34.026,83.944c-0.429-0.457-0.658-1-0.685-1.632
		c-0.027-0.631,0.147-1.188,0.523-1.671L49.331,60.02c0.484-0.699,1.168-1.047,2.054-1.047h46.398
		C98.667,58.973,99.353,59.322,99.835,60.02z"/>
</g>
<g id="new_logo">
	<g>
		<path fill="#585858" d="M45.584,53.876v64.49c0,4.705,3.814,8.52,8.52,8.52h95.063v-81.53H54.104
			C49.399,45.356,45.584,49.171,45.584,53.876z"/>
		<path fill="#585858" d="M45,140.743c-6.305,0-11.416-5.111-11.416-11.416v-86.41C33.584,36.611,38.696,31.5,45,31.5h104.167V18
			c0-9.941-8.059-18-18-18H18C8.059,0,0,8.059,0,18v136.243c0,9.941,8.059,18,18,18h113.167c9.941,0,18-8.059,18-18v-13.5H45z"/>
	</g>
</g>
</svg>
